# xmcd
# Copyright (C) 1995-1998 Ti Kan
#
# Track frame offsets:
#       150
#       19690
#       34130
#       54247
#       75538
#       92572
#       106215
#       122590
#       142058
#       162196
#
# Disc length: 2389 seconds
#
# Revision: 0
# Processed by: cddbd v1.5.1PL2 Copyright (c) Steve Scherf et al.
# Submitted via: CD-Transfer v1.0
#
DISCID=7309530a
DTITLE=Poker Alice - 
DYEAR=2006
DGENRE=
TTITLE0=Black White And Blue
TTITLE1=Born In The South
TTITLE2=By My Side
TTITLE3=Country Comfort
TTITLE4=Don't You Know
TTITLE5=Heart Of Steel
TTITLE6=On Of A Kind
TTITLE7=Questions?
TTITLE8=Raise No Fool
TTITLE9=What's Up
EXTD=
EXTT0=
EXTT1=
EXTT2=
EXTT3=
EXTT4=
EXTT5=
EXTT6=
EXTT7=
EXTT8=
EXTT9=
PLAYORDER=
